<mxfile host="drawio.corp.amazon.com" modified="2025-05-26T12:29:38.814Z" agent="Mozilla/5.0 (Macintosh; Intel Mac OS X 10_15_7) AppleWebKit/537.36 (KHTML, like Gecko) Chrome/136.0.0.0 Safari/537.36" version="21.7.4" etag="gRphWdCRDSG9ls-f4byC" type="device" pages="2">
  <diagram id="n5W9dpHo_4uRlmlUV37y" name="Page-1">
    <mxGraphModel dx="1283" dy="813" grid="1" gridSize="10" guides="1" tooltips="1" connect="1" arrows="1" fold="1" page="1" pageScale="1" pageWidth="1700" pageHeight="1100" background="#FFFFFF" math="0" shadow="0">
      <root>
        <mxCell id="0" />
        <mxCell id="1" parent="0" />
        <mxCell id="Vt560z4J3A8kVG_z0Vwq-2" value="" style="rounded=1;whiteSpace=wrap;html=1;fontSize=20;fillColor=none;arcSize=2;dashed=1;" parent="1" vertex="1">
          <mxGeometry x="161" y="271" width="979" height="639" as="geometry" />
        </mxCell>
        <mxCell id="40" value="MDAA Roles Module" style="rounded=1;whiteSpace=wrap;html=1;fontSize=20;fillColor=none;arcSize=2;dashed=1;labelPosition=center;verticalLabelPosition=bottom;align=center;verticalAlign=top;strokeColor=#FF8000;strokeWidth=5;" parent="1" vertex="1">
          <mxGeometry x="856" y="380" width="254" height="470" as="geometry" />
        </mxCell>
        <mxCell id="Vt560z4J3A8kVG_z0Vwq-3" value="MDAA Data Science Team Module" style="rounded=1;whiteSpace=wrap;html=1;fontSize=20;fillColor=none;arcSize=2;dashed=1;labelPosition=center;verticalLabelPosition=bottom;align=center;verticalAlign=top;strokeColor=#FF8000;strokeWidth=5;" parent="1" vertex="1">
          <mxGeometry x="210" y="395" width="450" height="455" as="geometry" />
        </mxCell>
        <mxCell id="Vt560z4J3A8kVG_z0Vwq-4" value="Deployment/Target&lt;br style=&quot;font-size: 20px;&quot;&gt;Account" style="outlineConnect=0;dashed=0;verticalLabelPosition=middle;verticalAlign=middle;align=left;html=1;shape=mxgraph.aws3.cloud_2;fillColor=#F58534;gradientColor=none;labelPosition=right;fontSize=20;" parent="1" vertex="1">
          <mxGeometry x="160" y="270" width="60" height="60" as="geometry" />
        </mxCell>
        <mxCell id="32" value="Access&lt;br&gt;(via Key Policy)" style="edgeStyle=orthogonalEdgeStyle;rounded=0;html=1;fontSize=16;entryX=0.5;entryY=0;entryDx=0;entryDy=0;" parent="1" source="Vt560z4J3A8kVG_z0Vwq-15" target="47" edge="1">
          <mxGeometry x="-0.3349" relative="1" as="geometry">
            <Array as="points">
              <mxPoint x="990" y="464" />
            </Array>
            <mxPoint as="offset" />
          </mxGeometry>
        </mxCell>
        <mxCell id="Vt560z4J3A8kVG_z0Vwq-15" value="Team KMS Key" style="sketch=0;points=[[0,0,0],[0.25,0,0],[0.5,0,0],[0.75,0,0],[1,0,0],[0,1,0],[0.25,1,0],[0.5,1,0],[0.75,1,0],[1,1,0],[0,0.25,0],[0,0.5,0],[0,0.75,0],[1,0.25,0],[1,0.5,0],[1,0.75,0]];outlineConnect=0;fontColor=#232F3E;gradientColor=#F54749;gradientDirection=north;fillColor=#C7131F;strokeColor=#ffffff;dashed=0;verticalLabelPosition=bottom;verticalAlign=top;align=center;html=1;fontSize=16;fontStyle=0;aspect=fixed;shape=mxgraph.aws4.resourceIcon;resIcon=mxgraph.aws4.key_management_service;" parent="1" vertex="1">
          <mxGeometry x="529" y="415" width="78" height="78" as="geometry" />
        </mxCell>
        <mxCell id="Vt560z4J3A8kVG_z0Vwq-16" value="Team&lt;br&gt;Bucket" style="sketch=0;points=[[0,0,0],[0.25,0,0],[0.5,0,0],[0.75,0,0],[1,0,0],[0,1,0],[0.25,1,0],[0.5,1,0],[0.75,1,0],[1,1,0],[0,0.25,0],[0,0.5,0],[0,0.75,0],[1,0.25,0],[1,0.5,0],[1,0.75,0]];outlineConnect=0;fontColor=#232F3E;gradientColor=#60A337;gradientDirection=north;fillColor=#277116;strokeColor=#ffffff;dashed=0;verticalLabelPosition=bottom;verticalAlign=top;align=center;html=1;fontSize=16;fontStyle=0;aspect=fixed;shape=mxgraph.aws4.resourceIcon;resIcon=mxgraph.aws4.s3;labelPosition=center;" parent="1" vertex="1">
          <mxGeometry x="529" y="685" width="78" height="78" as="geometry" />
        </mxCell>
        <mxCell id="28" value="Data Admin&#xa;Role" style="group;labelPosition=right;verticalLabelPosition=middle;align=left;verticalAlign=middle;fontSize=16;" parent="1" vertex="1" connectable="0">
          <mxGeometry x="910" y="555" width="72" height="68" as="geometry" />
        </mxCell>
        <mxCell id="29" value="" style="rounded=0;whiteSpace=wrap;html=1;verticalAlign=top;fillColor=#C7131F;strokeColor=#ffffff;fontColor=#232F3E;sketch=0;gradientColor=#F54749;gradientDirection=north;dashed=0;fontStyle=0;" parent="28" vertex="1">
          <mxGeometry width="72" height="68" as="geometry" />
        </mxCell>
        <mxCell id="30" value="" style="sketch=0;outlineConnect=0;dashed=0;verticalLabelPosition=bottom;verticalAlign=top;align=center;html=1;fontSize=12;fontStyle=0;aspect=fixed;pointerEvents=1;shape=mxgraph.aws4.role;" parent="28" vertex="1">
          <mxGeometry x="5" y="17" width="60.27" height="34" as="geometry" />
        </mxCell>
        <mxCell id="33" value="Access&amp;nbsp;&lt;br&gt;(via Bucket Policy)" style="edgeStyle=orthogonalEdgeStyle;rounded=0;html=1;entryX=0.5;entryY=1;entryDx=0;entryDy=0;fontSize=16;exitX=1;exitY=0.5;exitDx=0;exitDy=0;exitPerimeter=0;" parent="1" source="Vt560z4J3A8kVG_z0Vwq-16" target="47" edge="1">
          <mxGeometry x="-0.35" relative="1" as="geometry">
            <mxPoint x="607" y="725" as="sourcePoint" />
            <mxPoint as="offset" />
          </mxGeometry>
        </mxCell>
        <mxCell id="35" style="edgeStyle=orthogonalEdgeStyle;html=1;entryX=0;entryY=0.5;entryDx=0;entryDy=0;entryPerimeter=0;fontSize=16;rounded=0;" parent="1" target="Vt560z4J3A8kVG_z0Vwq-15" edge="1">
          <mxGeometry relative="1" as="geometry">
            <Array as="points">
              <mxPoint x="430" y="588.9999999999998" />
              <mxPoint x="430" y="454" />
            </Array>
            <mxPoint x="529" y="589" as="sourcePoint" />
          </mxGeometry>
        </mxCell>
        <mxCell id="37" value="Bound To" style="edgeStyle=orthogonalEdgeStyle;rounded=0;html=1;fontSize=16;" parent="1" target="36" edge="1">
          <mxGeometry relative="1" as="geometry">
            <mxPoint x="607" y="589" as="sourcePoint" />
          </mxGeometry>
        </mxCell>
        <mxCell id="39" style="edgeStyle=orthogonalEdgeStyle;rounded=0;html=1;fontSize=16;" parent="1" target="38" edge="1">
          <mxGeometry relative="1" as="geometry">
            <mxPoint x="529" y="589" as="sourcePoint" />
          </mxGeometry>
        </mxCell>
        <mxCell id="Vt560z4J3A8kVG_z0Vwq-23" value="Uses" style="edgeStyle=orthogonalEdgeStyle;rounded=0;orthogonalLoop=1;jettySize=auto;html=1;fontSize=16;entryX=0;entryY=0.5;entryDx=0;entryDy=0;entryPerimeter=0;" parent="1" source="Vt560z4J3A8kVG_z0Vwq-16" target="Vt560z4J3A8kVG_z0Vwq-15" edge="1">
          <mxGeometry x="-0.0466" relative="1" as="geometry">
            <Array as="points">
              <mxPoint x="429" y="705" />
              <mxPoint x="429" y="454" />
            </Array>
            <mxPoint y="-1" as="offset" />
          </mxGeometry>
        </mxCell>
        <mxCell id="36" value="Existing VPC and&lt;br style=&quot;font-size: 16px;&quot;&gt;Subnets" style="sketch=0;points=[[0,0,0],[0.25,0,0],[0.5,0,0],[0.75,0,0],[1,0,0],[0,1,0],[0.25,1,0],[0.5,1,0],[0.75,1,0],[1,1,0],[0,0.25,0],[0,0.5,0],[0,0.75,0],[1,0.25,0],[1,0.5,0],[1,0.75,0]];outlineConnect=0;fontColor=#232F3E;gradientColor=#945DF2;gradientDirection=north;fillColor=#5A30B5;strokeColor=#ffffff;dashed=0;verticalLabelPosition=bottom;verticalAlign=top;align=center;html=1;fontSize=16;fontStyle=0;aspect=fixed;shape=mxgraph.aws4.resourceIcon;resIcon=mxgraph.aws4.vpc;" parent="1" vertex="1">
          <mxGeometry x="730" y="550" width="78" height="78" as="geometry" />
        </mxCell>
        <mxCell id="38" value="Studio&lt;br&gt;Security Group" style="sketch=0;points=[[0,0,0],[0.25,0,0],[0.5,0,0],[0.75,0,0],[1,0,0],[0,1,0],[0.25,1,0],[0.5,1,0],[0.75,1,0],[1,1,0],[0,0.25,0],[0,0.5,0],[0,0.75,0],[1,0.25,0],[1,0.5,0],[1,0.75,0]];outlineConnect=0;fontColor=#232F3E;gradientColor=#945DF2;gradientDirection=north;fillColor=#5A30B5;strokeColor=#ffffff;dashed=0;verticalLabelPosition=bottom;verticalAlign=top;align=center;html=1;fontSize=16;fontStyle=0;aspect=fixed;shape=mxgraph.aws4.resourceIcon;resIcon=mxgraph.aws4.vpc;" parent="1" vertex="1">
          <mxGeometry x="270" y="550" width="78" height="78" as="geometry" />
        </mxCell>
        <mxCell id="50" value="Uses&lt;br&gt;for&lt;br&gt;EFS" style="edgeStyle=orthogonalEdgeStyle;rounded=0;html=1;entryX=0;entryY=0.75;entryDx=0;entryDy=0;entryPerimeter=0;fontSize=16;exitX=0;exitY=0.25;exitDx=0;exitDy=0;exitPerimeter=0;" parent="1" source="41" target="Vt560z4J3A8kVG_z0Vwq-15" edge="1">
          <mxGeometry relative="1" as="geometry">
            <Array as="points">
              <mxPoint x="470" y="566" />
              <mxPoint x="470" y="474" />
            </Array>
          </mxGeometry>
        </mxCell>
        <mxCell id="41" value="SageMaker Studio &lt;br style=&quot;font-size: 16px;&quot;&gt;Domain" style="sketch=0;points=[[0,0,0],[0.25,0,0],[0.5,0,0],[0.75,0,0],[1,0,0],[0,1,0],[0.25,1,0],[0.5,1,0],[0.75,1,0],[1,1,0],[0,0.25,0],[0,0.5,0],[0,0.75,0],[1,0.25,0],[1,0.5,0],[1,0.75,0]];outlineConnect=0;fontColor=#232F3E;gradientColor=#4AB29A;gradientDirection=north;fillColor=#116D5B;strokeColor=#ffffff;dashed=0;verticalLabelPosition=bottom;verticalAlign=top;align=center;html=1;fontSize=16;fontStyle=0;aspect=fixed;shape=mxgraph.aws4.resourceIcon;resIcon=mxgraph.aws4.sagemaker;" parent="1" vertex="1">
          <mxGeometry x="529" y="546" width="78" height="78" as="geometry" />
        </mxCell>
        <mxCell id="43" value="Query&lt;br style=&quot;font-size: 16px;&quot;&gt;Results" style="edgeStyle=none;html=1;entryX=0;entryY=0.75;entryDx=0;entryDy=0;entryPerimeter=0;fontSize=16;" parent="1" source="42" target="Vt560z4J3A8kVG_z0Vwq-16" edge="1">
          <mxGeometry relative="1" as="geometry" />
        </mxCell>
        <mxCell id="42" value="Team Athena&lt;br style=&quot;font-size: 16px;&quot;&gt;Workgroup" style="sketch=0;points=[[0,0,0],[0.25,0,0],[0.5,0,0],[0.75,0,0],[1,0,0],[0,1,0],[0.25,1,0],[0.5,1,0],[0.75,1,0],[1,1,0],[0,0.25,0],[0,0.5,0],[0,0.75,0],[1,0.25,0],[1,0.5,0],[1,0.75,0]];outlineConnect=0;fontColor=#232F3E;gradientColor=#945DF2;gradientDirection=north;fillColor=#5A30B5;strokeColor=#ffffff;dashed=0;verticalLabelPosition=bottom;verticalAlign=top;align=center;html=1;fontSize=16;fontStyle=0;aspect=fixed;shape=mxgraph.aws4.resourceIcon;resIcon=mxgraph.aws4.athena;" parent="1" vertex="1">
          <mxGeometry x="270" y="705" width="78" height="78" as="geometry" />
        </mxCell>
        <mxCell id="44" value="Data Scientist&#xa;Role" style="group;labelPosition=right;verticalLabelPosition=middle;align=left;verticalAlign=middle;fontSize=16;" parent="1" vertex="1" connectable="0">
          <mxGeometry x="910" y="623" width="72" height="68" as="geometry" />
        </mxCell>
        <mxCell id="45" value="" style="rounded=0;whiteSpace=wrap;html=1;verticalAlign=top;fillColor=#C7131F;strokeColor=#ffffff;fontColor=#232F3E;sketch=0;gradientColor=#F54749;gradientDirection=north;dashed=0;fontStyle=0;" parent="44" vertex="1">
          <mxGeometry width="72" height="68" as="geometry" />
        </mxCell>
        <mxCell id="46" value="" style="sketch=0;outlineConnect=0;dashed=0;verticalLabelPosition=bottom;verticalAlign=top;align=center;html=1;fontSize=12;fontStyle=0;aspect=fixed;pointerEvents=1;shape=mxgraph.aws4.role;" parent="44" vertex="1">
          <mxGeometry x="5" y="17" width="60.27" height="34" as="geometry" />
        </mxCell>
        <mxCell id="47" value="" style="rounded=1;whiteSpace=wrap;html=1;fontSize=16;dashed=1;fillColor=none;" parent="1" vertex="1">
          <mxGeometry x="893" y="530" width="193" height="169.5" as="geometry" />
        </mxCell>
        <mxCell id="49" value="Associated To" style="edgeStyle=orthogonalEdgeStyle;html=1;entryX=0.75;entryY=0;entryDx=0;entryDy=0;fontSize=16;rounded=0;" parent="1" source="48" target="47" edge="1">
          <mxGeometry x="-0.1361" relative="1" as="geometry">
            <Array as="points">
              <mxPoint x="309" y="340" />
              <mxPoint x="1038" y="340" />
            </Array>
            <mxPoint as="offset" />
          </mxGeometry>
        </mxCell>
        <mxCell id="48" value="Team Managed&lt;br&gt;Policies" style="sketch=0;points=[[0,0,0],[0.25,0,0],[0.5,0,0],[0.75,0,0],[1,0,0],[0,1,0],[0.25,1,0],[0.5,1,0],[0.75,1,0],[1,1,0],[0,0.25,0],[0,0.5,0],[0,0.75,0],[1,0.25,0],[1,0.5,0],[1,0.75,0]];outlineConnect=0;fontColor=#232F3E;gradientColor=#F54749;gradientDirection=north;fillColor=#C7131F;strokeColor=#ffffff;dashed=0;verticalLabelPosition=bottom;verticalAlign=top;align=center;html=1;fontSize=16;fontStyle=0;aspect=fixed;shape=mxgraph.aws4.resourceIcon;resIcon=mxgraph.aws4.identity_and_access_management;" parent="1" vertex="1">
          <mxGeometry x="270" y="416" width="78" height="78" as="geometry" />
        </mxCell>
      </root>
    </mxGraphModel>
  </diagram>
  <diagram id="J8mVswfM1XzISD028ROT" name="Page-2">
    <mxGraphModel dx="5113" dy="1857" grid="1" gridSize="10" guides="1" tooltips="1" connect="1" arrows="1" fold="1" page="1" pageScale="1" pageWidth="2182" pageHeight="1345" math="0" shadow="0">
      <root>
        <mxCell id="0" />
        <mxCell id="1" parent="0" />
        <mxCell id="CcTxp-rUYaUsrzvwo70J-1" value="" style="rounded=1;whiteSpace=wrap;html=1;fontSize=20;fillColor=none;arcSize=2;dashed=1;" vertex="1" parent="1">
          <mxGeometry x="-100" y="320" width="2800" height="1710" as="geometry" />
        </mxCell>
        <mxCell id="CcTxp-rUYaUsrzvwo70J-2" value="MDAA DataOps Project Module" style="rounded=1;whiteSpace=wrap;html=1;fontSize=20;fillColor=none;arcSize=2;dashed=1;labelPosition=center;verticalLabelPosition=top;align=center;verticalAlign=bottom;strokeColor=#FF8000;strokeWidth=5;" vertex="1" parent="1">
          <mxGeometry x="806.14" y="630" width="370" height="180" as="geometry" />
        </mxCell>
        <mxCell id="CcTxp-rUYaUsrzvwo70J-3" value="MDAA Roles Module&amp;nbsp;" style="rounded=1;whiteSpace=wrap;html=1;fontSize=20;fillColor=none;arcSize=2;dashed=1;labelPosition=center;verticalLabelPosition=bottom;align=center;verticalAlign=top;strokeColor=#FF8000;strokeWidth=5;" vertex="1" parent="1">
          <mxGeometry x="750" y="840" width="540" height="760" as="geometry" />
        </mxCell>
        <mxCell id="CcTxp-rUYaUsrzvwo70J-4" value="MDAA Athena Workgroup Module&amp;nbsp;" style="rounded=1;whiteSpace=wrap;html=1;fontSize=20;fillColor=none;arcSize=2;dashed=1;labelPosition=center;verticalLabelPosition=bottom;align=center;verticalAlign=top;strokeColor=#FF8000;strokeWidth=5;" vertex="1" parent="1">
          <mxGeometry x="1320" y="840" width="570" height="480" as="geometry" />
        </mxCell>
        <mxCell id="CcTxp-rUYaUsrzvwo70J-5" value="MDAA S3 Data Lake Module&amp;nbsp;" style="rounded=1;whiteSpace=wrap;html=1;fontSize=20;fillColor=none;arcSize=2;dashed=1;labelPosition=center;verticalLabelPosition=bottom;align=center;verticalAlign=top;strokeColor=#FF8000;strokeWidth=5;" vertex="1" parent="1">
          <mxGeometry x="50" y="840" width="650" height="480" as="geometry" />
        </mxCell>
        <mxCell id="CcTxp-rUYaUsrzvwo70J-6" value="Deployment/Target&lt;br style=&quot;font-size: 20px;&quot;&gt;Account" style="outlineConnect=0;dashed=0;verticalLabelPosition=middle;verticalAlign=middle;align=left;html=1;shape=mxgraph.aws3.cloud_2;fillColor=#F58534;gradientColor=none;labelPosition=right;fontSize=20;" vertex="1" parent="1">
          <mxGeometry x="-10" y="330" width="60" height="60" as="geometry" />
        </mxCell>
        <mxCell id="CcTxp-rUYaUsrzvwo70J-7" value="Transformed&lt;br&gt;Bucket" style="sketch=0;points=[[0,0,0],[0.25,0,0],[0.5,0,0],[0.75,0,0],[1,0,0],[0,1,0],[0.25,1,0],[0.5,1,0],[0.75,1,0],[1,1,0],[0,0.25,0],[0,0.5,0],[0,0.75,0],[1,0.25,0],[1,0.5,0],[1,0.75,0]];outlineConnect=0;fontColor=#232F3E;gradientColor=#60A337;gradientDirection=north;fillColor=#277116;strokeColor=#ffffff;dashed=0;verticalLabelPosition=middle;verticalAlign=middle;align=left;html=1;fontSize=16;fontStyle=0;aspect=fixed;shape=mxgraph.aws4.resourceIcon;resIcon=mxgraph.aws4.s3;labelPosition=right;" vertex="1" parent="1">
          <mxGeometry x="270" y="930" width="78" height="78" as="geometry" />
        </mxCell>
        <mxCell id="CcTxp-rUYaUsrzvwo70J-8" value="Data Lake&#xa;Bucket Policies" style="group;labelPosition=center;verticalLabelPosition=bottom;align=center;verticalAlign=top;fontSize=16;" vertex="1" connectable="0" parent="1">
          <mxGeometry x="269" y="1150" width="80" height="80" as="geometry" />
        </mxCell>
        <mxCell id="CcTxp-rUYaUsrzvwo70J-9" value="" style="whiteSpace=wrap;html=1;aspect=fixed;fontSize=16;verticalAlign=top;fillColor=#277116;strokeColor=#ffffff;fontColor=#232F3E;sketch=0;gradientColor=#60A337;gradientDirection=north;dashed=0;fontStyle=0;" vertex="1" parent="CcTxp-rUYaUsrzvwo70J-8">
          <mxGeometry width="80" height="80" as="geometry" />
        </mxCell>
        <mxCell id="CcTxp-rUYaUsrzvwo70J-10" value="" style="sketch=0;outlineConnect=0;dashed=0;verticalLabelPosition=bottom;verticalAlign=top;align=center;html=1;fontSize=16;fontStyle=0;aspect=fixed;pointerEvents=1;shape=mxgraph.aws4.policy;gradientDirection=north;" vertex="1" parent="CcTxp-rUYaUsrzvwo70J-8">
          <mxGeometry x="7.110000000000014" y="13" width="65.78" height="56.5" as="geometry" />
        </mxCell>
        <mxCell id="CcTxp-rUYaUsrzvwo70J-11" value="Data &#xa;Admin" style="group;labelPosition=right;verticalLabelPosition=middle;align=left;verticalAlign=middle;fontSize=16;" vertex="1" connectable="0" parent="1">
          <mxGeometry x="814" y="947.5" width="72" height="68" as="geometry" />
        </mxCell>
        <mxCell id="CcTxp-rUYaUsrzvwo70J-12" value="" style="rounded=0;whiteSpace=wrap;html=1;verticalAlign=top;fillColor=#C7131F;strokeColor=#ffffff;fontColor=#232F3E;sketch=0;gradientColor=#F54749;gradientDirection=north;dashed=0;fontStyle=0;" vertex="1" parent="CcTxp-rUYaUsrzvwo70J-11">
          <mxGeometry width="72" height="68" as="geometry" />
        </mxCell>
        <mxCell id="CcTxp-rUYaUsrzvwo70J-13" value="" style="sketch=0;outlineConnect=0;dashed=0;verticalLabelPosition=bottom;verticalAlign=top;align=center;html=1;fontSize=12;fontStyle=0;aspect=fixed;pointerEvents=1;shape=mxgraph.aws4.role;" vertex="1" parent="CcTxp-rUYaUsrzvwo70J-11">
          <mxGeometry x="5" y="17" width="60.27" height="34" as="geometry" />
        </mxCell>
        <mxCell id="CcTxp-rUYaUsrzvwo70J-14" style="edgeStyle=orthogonalEdgeStyle;rounded=0;html=1;entryX=0.5;entryY=1;entryDx=0;entryDy=0;fontSize=16;dashed=1;" edge="1" parent="1" source="CcTxp-rUYaUsrzvwo70J-17" target="CcTxp-rUYaUsrzvwo70J-29">
          <mxGeometry relative="1" as="geometry" />
        </mxCell>
        <mxCell id="CcTxp-rUYaUsrzvwo70J-15" style="edgeStyle=orthogonalEdgeStyle;rounded=0;html=1;dashed=1;fontSize=16;entryX=0.75;entryY=1;entryDx=0;entryDy=0;" edge="1" parent="1" source="CcTxp-rUYaUsrzvwo70J-17" target="CcTxp-rUYaUsrzvwo70J-43">
          <mxGeometry relative="1" as="geometry" />
        </mxCell>
        <mxCell id="CcTxp-rUYaUsrzvwo70J-16" style="edgeStyle=orthogonalEdgeStyle;rounded=0;html=1;entryX=0.75;entryY=1;entryDx=0;entryDy=0;dashed=1;fontSize=16;" edge="1" parent="1" source="CcTxp-rUYaUsrzvwo70J-17" target="CcTxp-rUYaUsrzvwo70J-12">
          <mxGeometry relative="1" as="geometry" />
        </mxCell>
        <mxCell id="CcTxp-rUYaUsrzvwo70J-17" value="IAM Managed&lt;br style=&quot;font-size: 16px;&quot;&gt;Policies" style="sketch=0;points=[[0,0,0],[0.25,0,0],[0.5,0,0],[0.75,0,0],[1,0,0],[0,1,0],[0.25,1,0],[0.5,1,0],[0.75,1,0],[1,1,0],[0,0.25,0],[0,0.5,0],[0,0.75,0],[1,0.25,0],[1,0.5,0],[1,0.75,0]];outlineConnect=0;fontColor=#232F3E;gradientColor=#F54749;gradientDirection=north;fillColor=#C7131F;strokeColor=#ffffff;dashed=0;verticalLabelPosition=bottom;verticalAlign=top;align=center;html=1;fontSize=16;fontStyle=0;aspect=fixed;shape=mxgraph.aws4.resourceIcon;resIcon=mxgraph.aws4.identity_and_access_management;labelPosition=center;" vertex="1" parent="1">
          <mxGeometry x="1147" y="1200" width="78" height="78" as="geometry" />
        </mxCell>
        <mxCell id="CcTxp-rUYaUsrzvwo70J-18" value="Associated to&lt;br&gt;Data User Role" style="edgeStyle=orthogonalEdgeStyle;html=1;rounded=0;verticalAlign=middle;fontSize=16;entryX=1;entryY=0.5;entryDx=0;entryDy=0;" edge="1" parent="1" source="CcTxp-rUYaUsrzvwo70J-20" target="CcTxp-rUYaUsrzvwo70J-29">
          <mxGeometry x="0.2097" relative="1" as="geometry">
            <mxPoint x="930" y="840" as="targetPoint" />
            <Array as="points">
              <mxPoint x="1509" y="977" />
            </Array>
            <mxPoint as="offset" />
          </mxGeometry>
        </mxCell>
        <mxCell id="CcTxp-rUYaUsrzvwo70J-19" style="edgeStyle=orthogonalEdgeStyle;rounded=0;html=1;entryX=0;entryY=0.25;entryDx=0;entryDy=0;entryPerimeter=0;fontSize=16;" edge="1" parent="1" source="CcTxp-rUYaUsrzvwo70J-20" target="CcTxp-rUYaUsrzvwo70J-22">
          <mxGeometry relative="1" as="geometry">
            <Array as="points">
              <mxPoint x="1671" y="981.5" />
              <mxPoint x="1671" y="1132.5" />
            </Array>
          </mxGeometry>
        </mxCell>
        <mxCell id="CcTxp-rUYaUsrzvwo70J-20" value="WorkGroup IAM&lt;br&gt;Managed Policy" style="sketch=0;points=[[0,0,0],[0.25,0,0],[0.5,0,0],[0.75,0,0],[1,0,0],[0,1,0],[0.25,1,0],[0.5,1,0],[0.75,1,0],[1,1,0],[0,0.25,0],[0,0.5,0],[0,0.75,0],[1,0.25,0],[1,0.5,0],[1,0.75,0]];outlineConnect=0;fontColor=#232F3E;gradientColor=#F54749;gradientDirection=north;fillColor=#C7131F;strokeColor=#ffffff;dashed=0;verticalLabelPosition=bottom;verticalAlign=top;align=center;html=1;fontSize=16;fontStyle=0;aspect=fixed;shape=mxgraph.aws4.resourceIcon;resIcon=mxgraph.aws4.identity_and_access_management;labelPosition=center;" vertex="1" parent="1">
          <mxGeometry x="1431" y="942.5" width="78" height="78" as="geometry" />
        </mxCell>
        <mxCell id="CcTxp-rUYaUsrzvwo70J-21" value="Encrypted&lt;br&gt;With" style="edgeStyle=orthogonalEdgeStyle;rounded=0;html=1;entryX=1;entryY=0.75;entryDx=0;entryDy=0;entryPerimeter=0;fontSize=16;exitX=0;exitY=0.75;exitDx=0;exitDy=0;exitPerimeter=0;" edge="1" parent="1" source="CcTxp-rUYaUsrzvwo70J-22" target="CcTxp-rUYaUsrzvwo70J-23">
          <mxGeometry relative="1" as="geometry" />
        </mxCell>
        <mxCell id="CcTxp-rUYaUsrzvwo70J-22" value="Workgroup Query&lt;br&gt;Results Bucket" style="sketch=0;points=[[0,0,0],[0.25,0,0],[0.5,0,0],[0.75,0,0],[1,0,0],[0,1,0],[0.25,1,0],[0.5,1,0],[0.75,1,0],[1,1,0],[0,0.25,0],[0,0.5,0],[0,0.75,0],[1,0.25,0],[1,0.5,0],[1,0.75,0]];outlineConnect=0;fontColor=#232F3E;gradientColor=#60A337;gradientDirection=north;fillColor=#277116;strokeColor=#ffffff;dashed=0;verticalLabelPosition=bottom;verticalAlign=top;align=center;html=1;fontSize=16;fontStyle=0;aspect=fixed;shape=mxgraph.aws4.resourceIcon;resIcon=mxgraph.aws4.s3;labelPosition=center;" vertex="1" parent="1">
          <mxGeometry x="1701" y="1112.5" width="78" height="78" as="geometry" />
        </mxCell>
        <mxCell id="CcTxp-rUYaUsrzvwo70J-23" value="Workgroup&lt;br&gt;KMS Key" style="sketch=0;points=[[0,0,0],[0.25,0,0],[0.5,0,0],[0.75,0,0],[1,0,0],[0,1,0],[0.25,1,0],[0.5,1,0],[0.75,1,0],[1,1,0],[0,0.25,0],[0,0.5,0],[0,0.75,0],[1,0.25,0],[1,0.5,0],[1,0.75,0]];outlineConnect=0;fontColor=#232F3E;gradientColor=#F54749;gradientDirection=north;fillColor=#C7131F;strokeColor=#ffffff;dashed=0;verticalLabelPosition=bottom;verticalAlign=top;align=center;html=1;fontSize=16;fontStyle=0;aspect=fixed;shape=mxgraph.aws4.resourceIcon;resIcon=mxgraph.aws4.key_management_service;" vertex="1" parent="1">
          <mxGeometry x="1431" y="1112.5" width="78" height="78" as="geometry" />
        </mxCell>
        <mxCell id="CcTxp-rUYaUsrzvwo70J-24" value="Results&lt;br&gt;Location" style="edgeStyle=orthogonalEdgeStyle;rounded=0;html=1;fontSize=16;" edge="1" parent="1" source="CcTxp-rUYaUsrzvwo70J-25" target="CcTxp-rUYaUsrzvwo70J-22">
          <mxGeometry relative="1" as="geometry" />
        </mxCell>
        <mxCell id="CcTxp-rUYaUsrzvwo70J-25" value="Athena&lt;br style=&quot;font-size: 16px;&quot;&gt;Workgroup" style="sketch=0;points=[[0,0,0],[0.25,0,0],[0.5,0,0],[0.75,0,0],[1,0,0],[0,1,0],[0.25,1,0],[0.5,1,0],[0.75,1,0],[1,1,0],[0,0.25,0],[0,0.5,0],[0,0.75,0],[1,0.25,0],[1,0.5,0],[1,0.75,0]];outlineConnect=0;fontColor=#232F3E;gradientColor=#945DF2;gradientDirection=north;fillColor=#5A30B5;strokeColor=#ffffff;dashed=0;verticalLabelPosition=top;verticalAlign=bottom;align=center;html=1;fontSize=16;fontStyle=0;aspect=fixed;shape=mxgraph.aws4.resourceIcon;resIcon=mxgraph.aws4.athena;labelPosition=center;" vertex="1" parent="1">
          <mxGeometry x="1701" y="942.5" width="78" height="78" as="geometry" />
        </mxCell>
        <mxCell id="CcTxp-rUYaUsrzvwo70J-26" value="Glue Databases" style="sketch=0;points=[[0,0,0],[0.25,0,0],[0.5,0,0],[0.75,0,0],[1,0,0],[0,1,0],[0.25,1,0],[0.5,1,0],[0.75,1,0],[1,1,0],[0,0.25,0],[0,0.5,0],[0,0.75,0],[1,0.25,0],[1,0.5,0],[1,0.75,0]];outlineConnect=0;fontColor=#232F3E;gradientColor=#945DF2;gradientDirection=north;fillColor=#5A30B5;strokeColor=#ffffff;dashed=0;verticalLabelPosition=top;verticalAlign=bottom;align=center;html=1;fontSize=16;fontStyle=0;aspect=fixed;shape=mxgraph.aws4.resourceIcon;resIcon=mxgraph.aws4.glue;labelPosition=center;" vertex="1" parent="1">
          <mxGeometry x="952.14" y="700" width="78" height="78" as="geometry" />
        </mxCell>
        <mxCell id="CcTxp-rUYaUsrzvwo70J-27" value="Access&lt;br&gt;Granted To" style="edgeStyle=orthogonalEdgeStyle;rounded=0;html=1;fontSize=16;" edge="1" parent="1" source="CcTxp-rUYaUsrzvwo70J-20" target="CcTxp-rUYaUsrzvwo70J-25">
          <mxGeometry relative="1" as="geometry">
            <Array as="points">
              <mxPoint x="1661" y="981.5" />
              <mxPoint x="1661" y="981.5" />
            </Array>
          </mxGeometry>
        </mxCell>
        <mxCell id="CcTxp-rUYaUsrzvwo70J-28" value="Data&#xa;User" style="group;labelPosition=left;verticalLabelPosition=middle;align=right;verticalAlign=middle;fontSize=16;" vertex="1" connectable="0" parent="1">
          <mxGeometry x="1150" y="947.5" width="72" height="68" as="geometry" />
        </mxCell>
        <mxCell id="CcTxp-rUYaUsrzvwo70J-29" value="" style="rounded=0;whiteSpace=wrap;html=1;verticalAlign=top;fillColor=#C7131F;strokeColor=#ffffff;fontColor=#232F3E;sketch=0;gradientColor=#F54749;gradientDirection=north;dashed=0;fontStyle=0;" vertex="1" parent="CcTxp-rUYaUsrzvwo70J-28">
          <mxGeometry width="72" height="68" as="geometry" />
        </mxCell>
        <mxCell id="CcTxp-rUYaUsrzvwo70J-30" value="" style="sketch=0;outlineConnect=0;dashed=0;verticalLabelPosition=bottom;verticalAlign=top;align=center;html=1;fontSize=12;fontStyle=0;aspect=fixed;pointerEvents=1;shape=mxgraph.aws4.role;" vertex="1" parent="CcTxp-rUYaUsrzvwo70J-28">
          <mxGeometry x="5" y="17" width="60.27" height="34" as="geometry" />
        </mxCell>
        <mxCell id="CcTxp-rUYaUsrzvwo70J-31" style="edgeStyle=orthogonalEdgeStyle;rounded=0;html=1;entryX=0.25;entryY=1;entryDx=0;entryDy=0;fontSize=16;exitX=1;exitY=0.5;exitDx=0;exitDy=0;" edge="1" parent="1" source="CcTxp-rUYaUsrzvwo70J-9" target="CcTxp-rUYaUsrzvwo70J-12">
          <mxGeometry relative="1" as="geometry" />
        </mxCell>
        <mxCell id="CcTxp-rUYaUsrzvwo70J-32" value="MDAA DataOps Crawler Module" style="rounded=1;whiteSpace=wrap;html=1;fontSize=20;fillColor=none;arcSize=2;dashed=1;labelPosition=center;verticalLabelPosition=top;align=center;verticalAlign=bottom;strokeColor=#FF8000;strokeWidth=5;" vertex="1" parent="1">
          <mxGeometry x="220" y="450" width="460" height="180" as="geometry" />
        </mxCell>
        <mxCell id="CcTxp-rUYaUsrzvwo70J-33" value="Creates" style="edgeStyle=orthogonalEdgeStyle;rounded=0;html=1;entryX=0.5;entryY=0;entryDx=0;entryDy=0;entryPerimeter=0;fontSize=16;" edge="1" parent="1" source="CcTxp-rUYaUsrzvwo70J-34" target="CcTxp-rUYaUsrzvwo70J-37">
          <mxGeometry relative="1" as="geometry" />
        </mxCell>
        <mxCell id="CcTxp-rUYaUsrzvwo70J-34" value="Glue Crawlers" style="sketch=0;points=[[0,0,0],[0.25,0,0],[0.5,0,0],[0.75,0,0],[1,0,0],[0,1,0],[0.25,1,0],[0.5,1,0],[0.75,1,0],[1,1,0],[0,0.25,0],[0,0.5,0],[0,0.75,0],[1,0.25,0],[1,0.5,0],[1,0.75,0]];outlineConnect=0;fontColor=#232F3E;gradientColor=#945DF2;gradientDirection=north;fillColor=#5A30B5;strokeColor=#ffffff;dashed=0;verticalLabelPosition=middle;verticalAlign=middle;align=right;html=1;fontSize=16;fontStyle=0;aspect=fixed;shape=mxgraph.aws4.resourceIcon;resIcon=mxgraph.aws4.glue;labelPosition=left;" vertex="1" parent="1">
          <mxGeometry x="400" y="501" width="78" height="78" as="geometry" />
        </mxCell>
        <mxCell id="CcTxp-rUYaUsrzvwo70J-35" value="Created In" style="edgeStyle=orthogonalEdgeStyle;rounded=0;html=1;entryX=0;entryY=0.5;entryDx=0;entryDy=0;entryPerimeter=0;fontSize=16;exitX=1;exitY=0.5;exitDx=0;exitDy=0;exitPerimeter=0;" edge="1" parent="1" source="CcTxp-rUYaUsrzvwo70J-37" target="CcTxp-rUYaUsrzvwo70J-26">
          <mxGeometry relative="1" as="geometry">
            <Array as="points">
              <mxPoint x="740" y="740" />
              <mxPoint x="952" y="739" />
            </Array>
          </mxGeometry>
        </mxCell>
        <mxCell id="CcTxp-rUYaUsrzvwo70J-36" value="&lt;span style=&quot;color: rgb(0, 0, 0); font-family: Helvetica; font-size: 16px; font-style: normal; font-variant-ligatures: normal; font-variant-caps: normal; font-weight: 400; letter-spacing: normal; orphans: 2; text-align: center; text-indent: 0px; text-transform: none; widows: 2; word-spacing: 0px; -webkit-text-stroke-width: 0px; background-color: rgb(255, 255, 255); text-decoration-thickness: initial; text-decoration-style: initial; text-decoration-color: initial; float: none; display: inline !important;&quot;&gt;/data/sample-data/...&lt;/span&gt;" style="edgeStyle=orthogonalEdgeStyle;rounded=0;html=1;entryX=0.5;entryY=0;entryDx=0;entryDy=0;entryPerimeter=0;fontSize=16;" edge="1" parent="1" source="CcTxp-rUYaUsrzvwo70J-37" target="CcTxp-rUYaUsrzvwo70J-7">
          <mxGeometry x="0.1424" relative="1" as="geometry">
            <Array as="points">
              <mxPoint x="439" y="810" />
              <mxPoint x="309" y="810" />
            </Array>
            <mxPoint x="1" as="offset" />
          </mxGeometry>
        </mxCell>
        <mxCell id="CcTxp-rUYaUsrzvwo70J-37" value="Glue Tables" style="sketch=0;points=[[0,0,0],[0.25,0,0],[0.5,0,0],[0.75,0,0],[1,0,0],[0,1,0],[0.25,1,0],[0.5,1,0],[0.75,1,0],[1,1,0],[0,0.25,0],[0,0.5,0],[0,0.75,0],[1,0.25,0],[1,0.5,0],[1,0.75,0]];outlineConnect=0;fontColor=#232F3E;gradientColor=#945DF2;gradientDirection=north;fillColor=#5A30B5;strokeColor=#ffffff;dashed=0;verticalLabelPosition=middle;verticalAlign=middle;align=right;html=1;fontSize=16;fontStyle=0;aspect=fixed;shape=mxgraph.aws4.resourceIcon;resIcon=mxgraph.aws4.glue;labelPosition=left;" vertex="1" parent="1">
          <mxGeometry x="400" y="700" width="78" height="78" as="geometry" />
        </mxCell>
        <mxCell id="CcTxp-rUYaUsrzvwo70J-38" value="Raw&lt;br&gt;Bucket" style="sketch=0;points=[[0,0,0],[0.25,0,0],[0.5,0,0],[0.75,0,0],[1,0,0],[0,1,0],[0.25,1,0],[0.5,1,0],[0.75,1,0],[1,1,0],[0,0.25,0],[0,0.5,0],[0,0.75,0],[1,0.25,0],[1,0.5,0],[1,0.75,0]];outlineConnect=0;fontColor=#232F3E;gradientColor=#60A337;gradientDirection=north;fillColor=#277116;strokeColor=#ffffff;dashed=0;verticalLabelPosition=middle;verticalAlign=middle;align=left;html=1;fontSize=16;fontStyle=0;aspect=fixed;shape=mxgraph.aws4.resourceIcon;resIcon=mxgraph.aws4.s3;labelPosition=right;" vertex="1" parent="1">
          <mxGeometry x="90" y="930" width="78" height="78" as="geometry" />
        </mxCell>
        <mxCell id="CcTxp-rUYaUsrzvwo70J-39" style="edgeStyle=orthogonalEdgeStyle;html=1;entryX=0.5;entryY=1;entryDx=0;entryDy=0;entryPerimeter=0;rounded=0;exitX=0.5;exitY=0;exitDx=0;exitDy=0;" edge="1" parent="1" source="CcTxp-rUYaUsrzvwo70J-9" target="CcTxp-rUYaUsrzvwo70J-38">
          <mxGeometry relative="1" as="geometry">
            <Array as="points">
              <mxPoint x="310" y="1090" />
              <mxPoint x="129" y="1090" />
            </Array>
          </mxGeometry>
        </mxCell>
        <mxCell id="CcTxp-rUYaUsrzvwo70J-40" value="Applied To" style="edgeStyle=orthogonalEdgeStyle;rounded=0;orthogonalLoop=1;jettySize=auto;html=1;fontSize=16;" edge="1" parent="1" source="CcTxp-rUYaUsrzvwo70J-9" target="CcTxp-rUYaUsrzvwo70J-7">
          <mxGeometry x="-0.1549" relative="1" as="geometry">
            <mxPoint as="offset" />
          </mxGeometry>
        </mxCell>
        <mxCell id="CcTxp-rUYaUsrzvwo70J-41" style="edgeStyle=orthogonalEdgeStyle;html=1;entryX=0.25;entryY=1;entryDx=0;entryDy=0;rounded=0;exitX=1;exitY=0.5;exitDx=0;exitDy=0;" edge="1" parent="1" source="CcTxp-rUYaUsrzvwo70J-9" target="CcTxp-rUYaUsrzvwo70J-29">
          <mxGeometry relative="1" as="geometry" />
        </mxCell>
        <mxCell id="CcTxp-rUYaUsrzvwo70J-42" value="S3 Data Lake&lt;br&gt;Permissions&lt;br&gt;(via Bucket Policy)" style="edgeStyle=orthogonalEdgeStyle;rounded=0;orthogonalLoop=1;jettySize=auto;html=1;fontSize=16;entryX=0.25;entryY=1;entryDx=0;entryDy=0;exitX=1;exitY=0.5;exitDx=0;exitDy=0;" edge="1" parent="1" source="CcTxp-rUYaUsrzvwo70J-9" target="CcTxp-rUYaUsrzvwo70J-43">
          <mxGeometry x="-0.4826" relative="1" as="geometry">
            <mxPoint as="offset" />
            <Array as="points">
              <mxPoint x="982" y="1190" />
            </Array>
            <mxPoint x="420" y="1218" as="sourcePoint" />
          </mxGeometry>
        </mxCell>
        <mxCell id="CcTxp-rUYaUsrzvwo70J-43" value="" style="rounded=0;whiteSpace=wrap;html=1;verticalAlign=top;fillColor=#C7131F;strokeColor=#ffffff;fontColor=#232F3E;sketch=0;gradientColor=#F54749;gradientDirection=north;dashed=0;fontStyle=0;" vertex="1" parent="1">
          <mxGeometry x="964" y="1040" width="72" height="68" as="geometry" />
        </mxCell>
        <mxCell id="CcTxp-rUYaUsrzvwo70J-44" value="" style="sketch=0;outlineConnect=0;dashed=0;verticalLabelPosition=bottom;verticalAlign=top;align=center;html=1;fontSize=12;fontStyle=0;aspect=fixed;pointerEvents=1;shape=mxgraph.aws4.role;" vertex="1" parent="1">
          <mxGeometry x="969.87" y="1057" width="60.27" height="34" as="geometry" />
        </mxCell>
        <mxCell id="CcTxp-rUYaUsrzvwo70J-45" value="Grant general access&lt;br&gt;to AWS services and catalog,&lt;br&gt;but not Data." style="strokeWidth=1;shadow=0;dashed=0;align=center;html=1;shape=mxgraph.mockup.text.callout;linkText=;textSize=17;textColor=#666666;callDir=SW;callStyle=line;fontSize=17;fontColor=#666666;align=left;verticalAlign=bottom;strokeColor=#666666;movableLabel=1;" vertex="1" parent="1">
          <mxGeometry x="940" y="1258" width="207" height="62" as="geometry">
            <mxPoint x="-104" y="-2" as="offset" />
          </mxGeometry>
        </mxCell>
        <mxCell id="CcTxp-rUYaUsrzvwo70J-46" value="Grants access&lt;br&gt;to data for all roles." style="strokeWidth=1;shadow=0;dashed=0;align=center;html=1;shape=mxgraph.mockup.text.callout;linkText=;textSize=17;textColor=#666666;callDir=SW;callStyle=line;fontSize=17;fontColor=#666666;align=left;verticalAlign=bottom;strokeColor=#666666;movableLabel=1;" vertex="1" parent="1">
          <mxGeometry x="100" y="1208" width="169" height="62" as="geometry">
            <mxPoint x="-50" y="-8" as="offset" />
          </mxGeometry>
        </mxCell>
        <mxCell id="CcTxp-rUYaUsrzvwo70J-47" value="MDAA LakeFormation&lt;br&gt;Settings Module&amp;nbsp;" style="rounded=1;whiteSpace=wrap;html=1;fontSize=20;fillColor=none;arcSize=2;dashed=1;labelPosition=center;verticalLabelPosition=top;align=center;verticalAlign=bottom;strokeColor=#FF8000;strokeWidth=5;" vertex="1" parent="1">
          <mxGeometry x="1420" y="630" width="370" height="180" as="geometry" />
        </mxCell>
        <mxCell id="CcTxp-rUYaUsrzvwo70J-48" value="Create&lt;br style=&quot;font-size: 16px;&quot;&gt;Automatically" style="edgeStyle=orthogonalEdgeStyle;rounded=0;html=1;entryX=1;entryY=0.5;entryDx=0;entryDy=0;entryPerimeter=0;fontSize=16;" edge="1" parent="1" source="CcTxp-rUYaUsrzvwo70J-49" target="CcTxp-rUYaUsrzvwo70J-51">
          <mxGeometry relative="1" as="geometry" />
        </mxCell>
        <mxCell id="CcTxp-rUYaUsrzvwo70J-49" value="LakeFormation&lt;br&gt;IAMAllowedPrincipals&lt;br&gt;Default (True)" style="sketch=0;points=[[0,0,0],[0.25,0,0],[0.5,0,0],[0.75,0,0],[1,0,0],[0,1,0],[0.25,1,0],[0.5,1,0],[0.75,1,0],[1,1,0],[0,0.25,0],[0,0.5,0],[0,0.75,0],[1,0.25,0],[1,0.5,0],[1,0.75,0]];outlineConnect=0;fontColor=#232F3E;gradientColor=#945DF2;gradientDirection=north;fillColor=#5A30B5;strokeColor=#ffffff;dashed=0;verticalLabelPosition=middle;verticalAlign=middle;align=left;html=1;fontSize=16;fontStyle=0;aspect=fixed;shape=mxgraph.aws4.resourceIcon;resIcon=mxgraph.aws4.lake_formation;labelPosition=right;" vertex="1" parent="1">
          <mxGeometry x="1560" y="700" width="78" height="78" as="geometry" />
        </mxCell>
        <mxCell id="CcTxp-rUYaUsrzvwo70J-50" value="Delgates Access&lt;br style=&quot;font-size: 16px;&quot;&gt;To IAM Permissions&amp;nbsp;" style="edgeStyle=orthogonalEdgeStyle;rounded=0;html=1;entryX=1;entryY=0.5;entryDx=0;entryDy=0;entryPerimeter=0;fontSize=16;" edge="1" parent="1" source="CcTxp-rUYaUsrzvwo70J-51" target="CcTxp-rUYaUsrzvwo70J-26">
          <mxGeometry relative="1" as="geometry" />
        </mxCell>
        <mxCell id="CcTxp-rUYaUsrzvwo70J-51" value="IAMAllowed&lt;br&gt;Principals&lt;br&gt;Grant" style="sketch=0;points=[[0,0,0],[0.25,0,0],[0.5,0,0],[0.75,0,0],[1,0,0],[0,1,0],[0.25,1,0],[0.5,1,0],[0.75,1,0],[1,1,0],[0,0.25,0],[0,0.5,0],[0,0.75,0],[1,0.25,0],[1,0.5,0],[1,0.75,0]];outlineConnect=0;fontColor=#232F3E;gradientColor=#945DF2;gradientDirection=north;fillColor=#5A30B5;strokeColor=#ffffff;dashed=0;verticalLabelPosition=top;verticalAlign=bottom;align=center;html=1;fontSize=16;fontStyle=0;aspect=fixed;shape=mxgraph.aws4.resourceIcon;resIcon=mxgraph.aws4.lake_formation;labelPosition=center;" vertex="1" parent="1">
          <mxGeometry x="1280" y="700" width="78" height="78" as="geometry" />
        </mxCell>
        <mxCell id="WcDmEKWQtHB5HDOW0P0I-3" value="MDAA Data Science Team Module" style="rounded=1;whiteSpace=wrap;html=1;fontSize=20;fillColor=none;arcSize=2;dashed=1;labelPosition=center;verticalLabelPosition=bottom;align=center;verticalAlign=top;strokeColor=#FF8000;strokeWidth=5;" vertex="1" parent="1">
          <mxGeometry x="50" y="1410" width="450" height="455" as="geometry" />
        </mxCell>
        <mxCell id="WcDmEKWQtHB5HDOW0P0I-5" value="Access&lt;br&gt;(via Key Policy)" style="edgeStyle=orthogonalEdgeStyle;rounded=0;html=1;fontSize=16;" edge="1" parent="1" source="WcDmEKWQtHB5HDOW0P0I-6" target="WcDmEKWQtHB5HDOW0P0I-25">
          <mxGeometry x="-0.3349" relative="1" as="geometry">
            <Array as="points">
              <mxPoint x="890" y="1469" />
              <mxPoint x="890" y="1469" />
            </Array>
            <mxPoint as="offset" />
            <mxPoint x="870" y="1400" as="targetPoint" />
          </mxGeometry>
        </mxCell>
        <mxCell id="WcDmEKWQtHB5HDOW0P0I-6" value="Team KMS Key" style="sketch=0;points=[[0,0,0],[0.25,0,0],[0.5,0,0],[0.75,0,0],[1,0,0],[0,1,0],[0.25,1,0],[0.5,1,0],[0.75,1,0],[1,1,0],[0,0.25,0],[0,0.5,0],[0,0.75,0],[1,0.25,0],[1,0.5,0],[1,0.75,0]];outlineConnect=0;fontColor=#232F3E;gradientColor=#F54749;gradientDirection=north;fillColor=#C7131F;strokeColor=#ffffff;dashed=0;verticalLabelPosition=bottom;verticalAlign=top;align=center;html=1;fontSize=16;fontStyle=0;aspect=fixed;shape=mxgraph.aws4.resourceIcon;resIcon=mxgraph.aws4.key_management_service;" vertex="1" parent="1">
          <mxGeometry x="369" y="1430" width="78" height="78" as="geometry" />
        </mxCell>
        <mxCell id="WcDmEKWQtHB5HDOW0P0I-7" value="Team&lt;br&gt;Bucket" style="sketch=0;points=[[0,0,0],[0.25,0,0],[0.5,0,0],[0.75,0,0],[1,0,0],[0,1,0],[0.25,1,0],[0.5,1,0],[0.75,1,0],[1,1,0],[0,0.25,0],[0,0.5,0],[0,0.75,0],[1,0.25,0],[1,0.5,0],[1,0.75,0]];outlineConnect=0;fontColor=#232F3E;gradientColor=#60A337;gradientDirection=north;fillColor=#277116;strokeColor=#ffffff;dashed=0;verticalLabelPosition=bottom;verticalAlign=top;align=center;html=1;fontSize=16;fontStyle=0;aspect=fixed;shape=mxgraph.aws4.resourceIcon;resIcon=mxgraph.aws4.s3;labelPosition=center;" vertex="1" parent="1">
          <mxGeometry x="369" y="1700" width="78" height="78" as="geometry" />
        </mxCell>
        <mxCell id="WcDmEKWQtHB5HDOW0P0I-8" value="Data Admin&#xa;Role" style="group;labelPosition=right;verticalLabelPosition=middle;align=left;verticalAlign=middle;fontSize=16;" vertex="1" connectable="0" parent="1">
          <mxGeometry x="900" y="1420" width="72" height="68" as="geometry" />
        </mxCell>
        <mxCell id="WcDmEKWQtHB5HDOW0P0I-9" value="" style="rounded=0;whiteSpace=wrap;html=1;verticalAlign=top;fillColor=#C7131F;strokeColor=#ffffff;fontColor=#232F3E;sketch=0;gradientColor=#F54749;gradientDirection=north;dashed=0;fontStyle=0;" vertex="1" parent="WcDmEKWQtHB5HDOW0P0I-8">
          <mxGeometry width="72" height="68" as="geometry" />
        </mxCell>
        <mxCell id="WcDmEKWQtHB5HDOW0P0I-10" value="" style="sketch=0;outlineConnect=0;dashed=0;verticalLabelPosition=bottom;verticalAlign=top;align=center;html=1;fontSize=12;fontStyle=0;aspect=fixed;pointerEvents=1;shape=mxgraph.aws4.role;" vertex="1" parent="WcDmEKWQtHB5HDOW0P0I-8">
          <mxGeometry x="5" y="17" width="60.27" height="34" as="geometry" />
        </mxCell>
        <mxCell id="WcDmEKWQtHB5HDOW0P0I-11" value="Access&amp;nbsp;&lt;br&gt;(via Bucket Policy)" style="edgeStyle=orthogonalEdgeStyle;rounded=0;html=1;entryX=0.5;entryY=1;entryDx=0;entryDy=0;fontSize=16;exitX=1;exitY=0.5;exitDx=0;exitDy=0;exitPerimeter=0;" edge="1" parent="1" source="WcDmEKWQtHB5HDOW0P0I-7" target="WcDmEKWQtHB5HDOW0P0I-25">
          <mxGeometry x="-0.35" relative="1" as="geometry">
            <mxPoint x="447" y="1905" as="sourcePoint" />
            <mxPoint as="offset" />
            <Array as="points">
              <mxPoint x="780" y="1739" />
              <mxPoint x="780" y="1590" />
              <mxPoint x="970" y="1590" />
            </Array>
          </mxGeometry>
        </mxCell>
        <mxCell id="WcDmEKWQtHB5HDOW0P0I-12" style="edgeStyle=orthogonalEdgeStyle;html=1;entryX=0;entryY=0.5;entryDx=0;entryDy=0;entryPerimeter=0;fontSize=16;rounded=0;" edge="1" parent="1" target="WcDmEKWQtHB5HDOW0P0I-6">
          <mxGeometry relative="1" as="geometry">
            <Array as="points">
              <mxPoint x="270" y="1604" />
              <mxPoint x="270" y="1469" />
            </Array>
            <mxPoint x="369" y="1604" as="sourcePoint" />
          </mxGeometry>
        </mxCell>
        <mxCell id="WcDmEKWQtHB5HDOW0P0I-13" value="Bound To" style="edgeStyle=orthogonalEdgeStyle;rounded=0;html=1;fontSize=16;" edge="1" parent="1" target="WcDmEKWQtHB5HDOW0P0I-16">
          <mxGeometry relative="1" as="geometry">
            <mxPoint x="447" y="1604" as="sourcePoint" />
          </mxGeometry>
        </mxCell>
        <mxCell id="WcDmEKWQtHB5HDOW0P0I-14" style="edgeStyle=orthogonalEdgeStyle;rounded=0;html=1;fontSize=16;" edge="1" parent="1" target="WcDmEKWQtHB5HDOW0P0I-17">
          <mxGeometry relative="1" as="geometry">
            <mxPoint x="369" y="1604" as="sourcePoint" />
          </mxGeometry>
        </mxCell>
        <mxCell id="WcDmEKWQtHB5HDOW0P0I-15" value="Uses" style="edgeStyle=orthogonalEdgeStyle;rounded=0;orthogonalLoop=1;jettySize=auto;html=1;fontSize=16;entryX=0;entryY=0.5;entryDx=0;entryDy=0;entryPerimeter=0;" edge="1" parent="1" source="WcDmEKWQtHB5HDOW0P0I-7" target="WcDmEKWQtHB5HDOW0P0I-6">
          <mxGeometry x="-0.0466" relative="1" as="geometry">
            <Array as="points">
              <mxPoint x="269" y="1720" />
              <mxPoint x="269" y="1469" />
            </Array>
            <mxPoint y="-1" as="offset" />
          </mxGeometry>
        </mxCell>
        <mxCell id="WcDmEKWQtHB5HDOW0P0I-16" value="Existing VPC and&lt;br style=&quot;font-size: 16px;&quot;&gt;Subnets" style="sketch=0;points=[[0,0,0],[0.25,0,0],[0.5,0,0],[0.75,0,0],[1,0,0],[0,1,0],[0.25,1,0],[0.5,1,0],[0.75,1,0],[1,1,0],[0,0.25,0],[0,0.5,0],[0,0.75,0],[1,0.25,0],[1,0.5,0],[1,0.75,0]];outlineConnect=0;fontColor=#232F3E;gradientColor=#945DF2;gradientDirection=north;fillColor=#5A30B5;strokeColor=#ffffff;dashed=0;verticalLabelPosition=bottom;verticalAlign=top;align=center;html=1;fontSize=16;fontStyle=0;aspect=fixed;shape=mxgraph.aws4.resourceIcon;resIcon=mxgraph.aws4.vpc;" vertex="1" parent="1">
          <mxGeometry x="610" y="1565" width="78" height="78" as="geometry" />
        </mxCell>
        <mxCell id="WcDmEKWQtHB5HDOW0P0I-17" value="Studio&lt;br&gt;Security Group" style="sketch=0;points=[[0,0,0],[0.25,0,0],[0.5,0,0],[0.75,0,0],[1,0,0],[0,1,0],[0.25,1,0],[0.5,1,0],[0.75,1,0],[1,1,0],[0,0.25,0],[0,0.5,0],[0,0.75,0],[1,0.25,0],[1,0.5,0],[1,0.75,0]];outlineConnect=0;fontColor=#232F3E;gradientColor=#945DF2;gradientDirection=north;fillColor=#5A30B5;strokeColor=#ffffff;dashed=0;verticalLabelPosition=bottom;verticalAlign=top;align=center;html=1;fontSize=16;fontStyle=0;aspect=fixed;shape=mxgraph.aws4.resourceIcon;resIcon=mxgraph.aws4.vpc;" vertex="1" parent="1">
          <mxGeometry x="110" y="1565" width="78" height="78" as="geometry" />
        </mxCell>
        <mxCell id="WcDmEKWQtHB5HDOW0P0I-18" value="Uses&lt;br&gt;for&lt;br&gt;EFS" style="edgeStyle=orthogonalEdgeStyle;rounded=0;html=1;entryX=0;entryY=0.75;entryDx=0;entryDy=0;entryPerimeter=0;fontSize=16;exitX=0;exitY=0.25;exitDx=0;exitDy=0;exitPerimeter=0;" edge="1" parent="1" source="WcDmEKWQtHB5HDOW0P0I-19" target="WcDmEKWQtHB5HDOW0P0I-6">
          <mxGeometry relative="1" as="geometry">
            <Array as="points">
              <mxPoint x="310" y="1581" />
              <mxPoint x="310" y="1489" />
            </Array>
          </mxGeometry>
        </mxCell>
        <mxCell id="WcDmEKWQtHB5HDOW0P0I-19" value="SageMaker Studio &lt;br style=&quot;font-size: 16px;&quot;&gt;Domain" style="sketch=0;points=[[0,0,0],[0.25,0,0],[0.5,0,0],[0.75,0,0],[1,0,0],[0,1,0],[0.25,1,0],[0.5,1,0],[0.75,1,0],[1,1,0],[0,0.25,0],[0,0.5,0],[0,0.75,0],[1,0.25,0],[1,0.5,0],[1,0.75,0]];outlineConnect=0;fontColor=#232F3E;gradientColor=#4AB29A;gradientDirection=north;fillColor=#116D5B;strokeColor=#ffffff;dashed=0;verticalLabelPosition=bottom;verticalAlign=top;align=center;html=1;fontSize=16;fontStyle=0;aspect=fixed;shape=mxgraph.aws4.resourceIcon;resIcon=mxgraph.aws4.sagemaker;" vertex="1" parent="1">
          <mxGeometry x="369" y="1561" width="78" height="78" as="geometry" />
        </mxCell>
        <mxCell id="WcDmEKWQtHB5HDOW0P0I-20" value="Query&lt;br style=&quot;font-size: 16px;&quot;&gt;Results" style="edgeStyle=none;html=1;entryX=0;entryY=0.75;entryDx=0;entryDy=0;entryPerimeter=0;fontSize=16;" edge="1" parent="1" source="WcDmEKWQtHB5HDOW0P0I-21" target="WcDmEKWQtHB5HDOW0P0I-7">
          <mxGeometry relative="1" as="geometry" />
        </mxCell>
        <mxCell id="WcDmEKWQtHB5HDOW0P0I-21" value="Team Athena&lt;br style=&quot;font-size: 16px;&quot;&gt;Workgroup" style="sketch=0;points=[[0,0,0],[0.25,0,0],[0.5,0,0],[0.75,0,0],[1,0,0],[0,1,0],[0.25,1,0],[0.5,1,0],[0.75,1,0],[1,1,0],[0,0.25,0],[0,0.5,0],[0,0.75,0],[1,0.25,0],[1,0.5,0],[1,0.75,0]];outlineConnect=0;fontColor=#232F3E;gradientColor=#945DF2;gradientDirection=north;fillColor=#5A30B5;strokeColor=#ffffff;dashed=0;verticalLabelPosition=bottom;verticalAlign=top;align=center;html=1;fontSize=16;fontStyle=0;aspect=fixed;shape=mxgraph.aws4.resourceIcon;resIcon=mxgraph.aws4.athena;" vertex="1" parent="1">
          <mxGeometry x="110" y="1720" width="78" height="78" as="geometry" />
        </mxCell>
        <mxCell id="WcDmEKWQtHB5HDOW0P0I-22" value="Data Scientist&#xa;Role" style="group;labelPosition=right;verticalLabelPosition=middle;align=left;verticalAlign=middle;fontSize=16;" vertex="1" connectable="0" parent="1">
          <mxGeometry x="900" y="1488" width="72" height="68" as="geometry" />
        </mxCell>
        <mxCell id="WcDmEKWQtHB5HDOW0P0I-23" value="" style="rounded=0;whiteSpace=wrap;html=1;verticalAlign=top;fillColor=#C7131F;strokeColor=#ffffff;fontColor=#232F3E;sketch=0;gradientColor=#F54749;gradientDirection=north;dashed=0;fontStyle=0;" vertex="1" parent="WcDmEKWQtHB5HDOW0P0I-22">
          <mxGeometry width="72" height="68" as="geometry" />
        </mxCell>
        <mxCell id="WcDmEKWQtHB5HDOW0P0I-24" value="" style="sketch=0;outlineConnect=0;dashed=0;verticalLabelPosition=bottom;verticalAlign=top;align=center;html=1;fontSize=12;fontStyle=0;aspect=fixed;pointerEvents=1;shape=mxgraph.aws4.role;" vertex="1" parent="WcDmEKWQtHB5HDOW0P0I-22">
          <mxGeometry x="5" y="17" width="60.27" height="34" as="geometry" />
        </mxCell>
        <mxCell id="WcDmEKWQtHB5HDOW0P0I-25" value="" style="rounded=1;whiteSpace=wrap;html=1;fontSize=16;dashed=1;fillColor=none;" vertex="1" parent="1">
          <mxGeometry x="860" y="1401" width="220" height="164" as="geometry" />
        </mxCell>
        <mxCell id="WcDmEKWQtHB5HDOW0P0I-26" value="Associated To" style="edgeStyle=orthogonalEdgeStyle;html=1;entryX=0.5;entryY=0;entryDx=0;entryDy=0;fontSize=16;rounded=0;exitX=0.5;exitY=0;exitDx=0;exitDy=0;exitPerimeter=0;" edge="1" parent="1" source="WcDmEKWQtHB5HDOW0P0I-27" target="WcDmEKWQtHB5HDOW0P0I-25">
          <mxGeometry x="-0.1361" relative="1" as="geometry">
            <Array as="points">
              <mxPoint x="149" y="1376" />
            </Array>
            <mxPoint as="offset" />
            <mxPoint x="180" y="1340" as="sourcePoint" />
            <mxPoint x="1061.75" y="1250" as="targetPoint" />
          </mxGeometry>
        </mxCell>
        <mxCell id="WcDmEKWQtHB5HDOW0P0I-27" value="Team Managed&lt;br&gt;Policies" style="sketch=0;points=[[0,0,0],[0.25,0,0],[0.5,0,0],[0.75,0,0],[1,0,0],[0,1,0],[0.25,1,0],[0.5,1,0],[0.75,1,0],[1,1,0],[0,0.25,0],[0,0.5,0],[0,0.75,0],[1,0.25,0],[1,0.5,0],[1,0.75,0]];outlineConnect=0;fontColor=#232F3E;gradientColor=#F54749;gradientDirection=north;fillColor=#C7131F;strokeColor=#ffffff;dashed=0;verticalLabelPosition=bottom;verticalAlign=top;align=center;html=1;fontSize=16;fontStyle=0;aspect=fixed;shape=mxgraph.aws4.resourceIcon;resIcon=mxgraph.aws4.identity_and_access_management;" vertex="1" parent="1">
          <mxGeometry x="110" y="1431" width="78" height="78" as="geometry" />
        </mxCell>
        <mxCell id="WcDmEKWQtHB5HDOW0P0I-30" value="MDAA Audit Module" style="rounded=1;whiteSpace=wrap;html=1;fontSize=20;fillColor=none;arcSize=2;dashed=1;labelPosition=center;verticalLabelPosition=bottom;align=center;verticalAlign=top;strokeColor=#FF8000;strokeWidth=5;" vertex="1" parent="1">
          <mxGeometry x="1990" y="1370" width="520" height="440" as="geometry" />
        </mxCell>
        <mxCell id="WcDmEKWQtHB5HDOW0P0I-31" value="Audit KMS key" style="sketch=0;points=[[0,0,0],[0.25,0,0],[0.5,0,0],[0.75,0,0],[1,0,0],[0,1,0],[0.25,1,0],[0.5,1,0],[0.75,1,0],[1,1,0],[0,0.25,0],[0,0.5,0],[0,0.75,0],[1,0.25,0],[1,0.5,0],[1,0.75,0]];outlineConnect=0;fontColor=#232F3E;gradientColor=#F54749;gradientDirection=north;fillColor=#C7131F;strokeColor=#ffffff;dashed=0;verticalLabelPosition=bottom;verticalAlign=top;align=center;html=1;fontSize=16;fontStyle=0;aspect=fixed;shape=mxgraph.aws4.resourceIcon;resIcon=mxgraph.aws4.key_management_service;" vertex="1" parent="1">
          <mxGeometry x="2050" y="1450" width="78" height="78" as="geometry" />
        </mxCell>
        <mxCell id="WcDmEKWQtHB5HDOW0P0I-44" value="" style="edgeStyle=orthogonalEdgeStyle;rounded=0;orthogonalLoop=1;jettySize=auto;html=1;entryX=0;entryY=0.5;entryDx=0;entryDy=0;entryPerimeter=0;" edge="1" parent="1" source="WcDmEKWQtHB5HDOW0P0I-32" target="WcDmEKWQtHB5HDOW0P0I-36">
          <mxGeometry relative="1" as="geometry">
            <mxPoint x="2447" y="1489" as="targetPoint" />
          </mxGeometry>
        </mxCell>
        <mxCell id="WcDmEKWQtHB5HDOW0P0I-45" value="Audit Accesses" style="edgeLabel;html=1;align=center;verticalAlign=middle;resizable=0;points=[];" vertex="1" connectable="0" parent="WcDmEKWQtHB5HDOW0P0I-44">
          <mxGeometry x="-0.0764" y="3" relative="1" as="geometry">
            <mxPoint as="offset" />
          </mxGeometry>
        </mxCell>
        <mxCell id="WcDmEKWQtHB5HDOW0P0I-49" value="" style="edgeStyle=orthogonalEdgeStyle;rounded=0;orthogonalLoop=1;jettySize=auto;html=1;entryX=1;entryY=0.5;entryDx=0;entryDy=0;entryPerimeter=0;" edge="1" parent="1" source="WcDmEKWQtHB5HDOW0P0I-32" target="WcDmEKWQtHB5HDOW0P0I-31">
          <mxGeometry relative="1" as="geometry">
            <mxPoint x="2210" y="1489" as="targetPoint" />
          </mxGeometry>
        </mxCell>
        <mxCell id="WcDmEKWQtHB5HDOW0P0I-50" value="Uses" style="edgeLabel;html=1;align=center;verticalAlign=middle;resizable=0;points=[];" vertex="1" connectable="0" parent="WcDmEKWQtHB5HDOW0P0I-49">
          <mxGeometry x="0.0878" y="-4" relative="1" as="geometry">
            <mxPoint as="offset" />
          </mxGeometry>
        </mxCell>
        <mxCell id="WcDmEKWQtHB5HDOW0P0I-32" value="" style="sketch=0;points=[[0,0,0],[0.25,0,0],[0.5,0,0],[0.75,0,0],[1,0,0],[0,1,0],[0.25,1,0],[0.5,1,0],[0.75,1,0],[1,1,0],[0,0.25,0],[0,0.5,0],[0,0.75,0],[1,0.25,0],[1,0.5,0],[1,0.75,0]];outlineConnect=0;fontColor=#232F3E;gradientColor=#60A337;gradientDirection=north;fillColor=#277116;strokeColor=#ffffff;dashed=0;verticalLabelPosition=bottom;verticalAlign=top;align=center;html=1;fontSize=16;fontStyle=0;aspect=fixed;shape=mxgraph.aws4.resourceIcon;resIcon=mxgraph.aws4.s3;labelPosition=center;" vertex="1" parent="1">
          <mxGeometry x="2290" y="1450" width="78" height="78" as="geometry" />
        </mxCell>
        <mxCell id="WcDmEKWQtHB5HDOW0P0I-35" value="Audit Bucket" style="text;strokeColor=none;align=center;fillColor=none;html=1;verticalAlign=middle;whiteSpace=wrap;rounded=0;" vertex="1" parent="1">
          <mxGeometry x="2299" y="1410" width="60" height="30" as="geometry" />
        </mxCell>
        <mxCell id="WcDmEKWQtHB5HDOW0P0I-36" value="Audit IAM role" style="sketch=0;points=[[0,0,0],[0.25,0,0],[0.5,0,0],[0.75,0,0],[1,0,0],[0,1,0],[0.25,1,0],[0.5,1,0],[0.75,1,0],[1,1,0],[0,0.25,0],[0,0.5,0],[0,0.75,0],[1,0.25,0],[1,0.5,0],[1,0.75,0]];outlineConnect=0;fontColor=#232F3E;gradientColor=#F54749;gradientDirection=north;fillColor=#C7131F;strokeColor=#ffffff;dashed=0;verticalLabelPosition=bottom;verticalAlign=top;align=center;html=1;fontSize=16;fontStyle=0;aspect=fixed;shape=mxgraph.aws4.resourceIcon;resIcon=mxgraph.aws4.identity_and_access_management;labelPosition=center;" vertex="1" parent="1">
          <mxGeometry x="2570" y="1450" width="78" height="78" as="geometry" />
        </mxCell>
        <mxCell id="WcDmEKWQtHB5HDOW0P0I-52" value="" style="edgeStyle=orthogonalEdgeStyle;rounded=0;orthogonalLoop=1;jettySize=auto;html=1;" edge="1" parent="1" source="WcDmEKWQtHB5HDOW0P0I-38" target="WcDmEKWQtHB5HDOW0P0I-32">
          <mxGeometry relative="1" as="geometry">
            <mxPoint x="2329.000000000001" y="1570.9999999999995" as="targetPoint" />
          </mxGeometry>
        </mxCell>
        <mxCell id="WcDmEKWQtHB5HDOW0P0I-53" value="Table Location" style="edgeLabel;html=1;align=center;verticalAlign=middle;resizable=0;points=[];" vertex="1" connectable="0" parent="WcDmEKWQtHB5HDOW0P0I-52">
          <mxGeometry x="0.0909" y="4" relative="1" as="geometry">
            <mxPoint as="offset" />
          </mxGeometry>
        </mxCell>
        <mxCell id="WcDmEKWQtHB5HDOW0P0I-55" value="" style="edgeStyle=orthogonalEdgeStyle;rounded=0;orthogonalLoop=1;jettySize=auto;html=1;entryX=1;entryY=0.5;entryDx=0;entryDy=0;entryPerimeter=0;" edge="1" parent="1" source="WcDmEKWQtHB5HDOW0P0I-38" target="WcDmEKWQtHB5HDOW0P0I-41">
          <mxGeometry relative="1" as="geometry">
            <mxPoint x="2210" y="1699" as="targetPoint" />
          </mxGeometry>
        </mxCell>
        <mxCell id="WcDmEKWQtHB5HDOW0P0I-56" value="Created In" style="edgeLabel;html=1;align=center;verticalAlign=middle;resizable=0;points=[];" vertex="1" connectable="0" parent="WcDmEKWQtHB5HDOW0P0I-55">
          <mxGeometry x="0.1594" y="-1" relative="1" as="geometry">
            <mxPoint as="offset" />
          </mxGeometry>
        </mxCell>
        <mxCell id="WcDmEKWQtHB5HDOW0P0I-38" value="" style="sketch=0;points=[[0,0,0],[0.25,0,0],[0.5,0,0],[0.75,0,0],[1,0,0],[0,1,0],[0.25,1,0],[0.5,1,0],[0.75,1,0],[1,1,0],[0,0.25,0],[0,0.5,0],[0,0.75,0],[1,0.25,0],[1,0.5,0],[1,0.75,0]];outlineConnect=0;fontColor=#232F3E;gradientColor=#945DF2;gradientDirection=north;fillColor=#5A30B5;strokeColor=#ffffff;dashed=0;verticalLabelPosition=top;verticalAlign=bottom;align=center;html=1;fontSize=16;fontStyle=0;aspect=fixed;shape=mxgraph.aws4.resourceIcon;resIcon=mxgraph.aws4.glue;labelPosition=center;" vertex="1" parent="1">
          <mxGeometry x="2290" y="1660" width="78" height="78" as="geometry" />
        </mxCell>
        <mxCell id="WcDmEKWQtHB5HDOW0P0I-39" value="" style="sketch=0;points=[[0,0,0],[0.25,0,0],[0.5,0,0],[0.75,0,0],[1,0,0],[0,1,0],[0.25,1,0],[0.5,1,0],[0.75,1,0],[1,1,0],[0,0.25,0],[0,0.5,0],[0,0.75,0],[1,0.25,0],[1,0.5,0],[1,0.75,0]];outlineConnect=0;fontColor=#232F3E;gradientColor=#945DF2;gradientDirection=north;fillColor=#5A30B5;strokeColor=#ffffff;dashed=0;verticalLabelPosition=top;verticalAlign=bottom;align=center;html=1;fontSize=16;fontStyle=0;aspect=fixed;shape=mxgraph.aws4.resourceIcon;resIcon=mxgraph.aws4.athena;labelPosition=center;" vertex="1" parent="1">
          <mxGeometry x="2368" y="1660" width="78" height="78" as="geometry" />
        </mxCell>
        <mxCell id="WcDmEKWQtHB5HDOW0P0I-40" value="Audit Glue/Athena Table" style="text;strokeColor=none;align=center;fillColor=none;html=1;verticalAlign=middle;whiteSpace=wrap;rounded=0;" vertex="1" parent="1">
          <mxGeometry x="2299" y="1738" width="140" height="30" as="geometry" />
        </mxCell>
        <mxCell id="WcDmEKWQtHB5HDOW0P0I-41" value="" style="sketch=0;points=[[0,0,0],[0.25,0,0],[0.5,0,0],[0.75,0,0],[1,0,0],[0,1,0],[0.25,1,0],[0.5,1,0],[0.75,1,0],[1,1,0],[0,0.25,0],[0,0.5,0],[0,0.75,0],[1,0.25,0],[1,0.5,0],[1,0.75,0]];outlineConnect=0;fontColor=#232F3E;gradientColor=#945DF2;gradientDirection=north;fillColor=#5A30B5;strokeColor=#ffffff;dashed=0;verticalLabelPosition=top;verticalAlign=bottom;align=center;html=1;fontSize=16;fontStyle=0;aspect=fixed;shape=mxgraph.aws4.resourceIcon;resIcon=mxgraph.aws4.glue;labelPosition=center;" vertex="1" parent="1">
          <mxGeometry x="2060" y="1660" width="78" height="78" as="geometry" />
        </mxCell>
        <mxCell id="WcDmEKWQtHB5HDOW0P0I-42" value="Audit Glue Database" style="text;strokeColor=none;align=center;fillColor=none;html=1;verticalAlign=middle;whiteSpace=wrap;rounded=0;" vertex="1" parent="1">
          <mxGeometry x="2069" y="1748" width="60" height="30" as="geometry" />
        </mxCell>
        <mxCell id="WcDmEKWQtHB5HDOW0P0I-57" value="MDAA Audit Trail Module" style="rounded=1;whiteSpace=wrap;html=1;fontSize=20;fillColor=none;arcSize=2;dashed=1;labelPosition=center;verticalLabelPosition=bottom;align=center;verticalAlign=top;strokeColor=#FF8000;strokeWidth=5;" vertex="1" parent="1">
          <mxGeometry x="2000" y="1112.5" width="520" height="170" as="geometry" />
        </mxCell>
        <mxCell id="WcDmEKWQtHB5HDOW0P0I-63" value="" style="edgeStyle=orthogonalEdgeStyle;rounded=0;orthogonalLoop=1;jettySize=auto;html=1;entryX=0.5;entryY=0;entryDx=0;entryDy=0;" edge="1" parent="1" source="WcDmEKWQtHB5HDOW0P0I-58" target="WcDmEKWQtHB5HDOW0P0I-35">
          <mxGeometry relative="1" as="geometry">
            <mxPoint x="2251" y="1337" as="targetPoint" />
          </mxGeometry>
        </mxCell>
        <mxCell id="WcDmEKWQtHB5HDOW0P0I-66" value="Writes to" style="edgeLabel;html=1;align=center;verticalAlign=middle;resizable=0;points=[];" vertex="1" connectable="0" parent="WcDmEKWQtHB5HDOW0P0I-63">
          <mxGeometry x="-0.3844" y="2" relative="1" as="geometry">
            <mxPoint as="offset" />
          </mxGeometry>
        </mxCell>
        <mxCell id="WcDmEKWQtHB5HDOW0P0I-70" value="" style="edgeStyle=orthogonalEdgeStyle;rounded=0;orthogonalLoop=1;jettySize=auto;html=1;entryX=0.5;entryY=0;entryDx=0;entryDy=0;entryPerimeter=0;" edge="1" parent="1" source="WcDmEKWQtHB5HDOW0P0I-58" target="WcDmEKWQtHB5HDOW0P0I-31">
          <mxGeometry relative="1" as="geometry">
            <mxPoint x="2131.999999999999" y="1209" as="targetPoint" />
          </mxGeometry>
        </mxCell>
        <mxCell id="WcDmEKWQtHB5HDOW0P0I-71" value="Uses" style="edgeLabel;html=1;align=center;verticalAlign=middle;resizable=0;points=[];" vertex="1" connectable="0" parent="WcDmEKWQtHB5HDOW0P0I-70">
          <mxGeometry x="-0.1051" y="-2" relative="1" as="geometry">
            <mxPoint as="offset" />
          </mxGeometry>
        </mxCell>
        <mxCell id="WcDmEKWQtHB5HDOW0P0I-58" value="" style="sketch=0;points=[[0,0,0],[0.25,0,0],[0.5,0,0],[0.75,0,0],[1,0,0],[0,1,0],[0.25,1,0],[0.5,1,0],[0.75,1,0],[1,1,0],[0,0.25,0],[0,0.5,0],[0,0.75,0],[1,0.25,0],[1,0.5,0],[1,0.75,0]];points=[[0,0,0],[0.25,0,0],[0.5,0,0],[0.75,0,0],[1,0,0],[0,1,0],[0.25,1,0],[0.5,1,0],[0.75,1,0],[1,1,0],[0,0.25,0],[0,0.5,0],[0,0.75,0],[1,0.25,0],[1,0.5,0],[1,0.75,0]];outlineConnect=0;fontColor=#232F3E;fillColor=#E7157B;strokeColor=#ffffff;dashed=0;verticalLabelPosition=bottom;verticalAlign=top;align=center;html=1;fontSize=12;fontStyle=0;aspect=fixed;shape=mxgraph.aws4.resourceIcon;resIcon=mxgraph.aws4.cloudtrail;" vertex="1" parent="1">
          <mxGeometry x="2212" y="1170" width="78" height="78" as="geometry" />
        </mxCell>
        <mxCell id="WcDmEKWQtHB5HDOW0P0I-61" value="Cloudtrail - Data events Trail" style="text;strokeColor=none;align=center;fillColor=none;html=1;verticalAlign=middle;whiteSpace=wrap;rounded=0;" vertex="1" parent="1">
          <mxGeometry x="2179.5" y="1130" width="141" height="30" as="geometry" />
        </mxCell>
      </root>
    </mxGraphModel>
  </diagram>
</mxfile>
